<?xml version="1.0" encoding="utf-8"?>
<!-- Generator: Adobe Illustrator 15.1.0, SVG Export Plug-In . SVG Version: 6.00 Build 0)  -->
<!DOCTYPE svg PUBLIC "-//W3C//DTD SVG 1.1//EN" "http://www.w3.org/Graphics/SVG/1.1/DTD/svg11.dtd">
<svg version="1.1" id="圖層_1" xmlns="http://www.w3.org/2000/svg" xmlns:xlink="http://www.w3.org/1999/xlink" x="0px" y="0px"
	 width="30px" height="30px" viewBox="0 0 30 30" enable-background="new 0 0 30 30" xml:space="preserve">
<g>
	<path fill="#999999" d="M24.717,3.833h-4.358c-0.306-0.826-1.093-1.417-2.025-1.417h-6.666c-0.933,0-1.719,0.591-2.025,1.417H5.283
		C4.712,3.834,4.251,4.295,4.25,4.867v4.101C4.251,9.539,4.712,10,5.283,10h0.633v15.416c0,1.197,0.97,2.167,2.167,2.168h13.833
		c1.197-0.001,2.166-0.971,2.167-2.168V10h0.634C25.288,10,25.749,9.539,25.75,8.967V4.867C25.749,4.295,25.288,3.834,24.717,3.833z
		 M23.333,8.5H6.666H5.75V5.333h4.5h9.5h4.5V8.5H23.333z M21.916,26.084H8.083c-0.367-0.001-0.667-0.299-0.667-0.668V10h15.167
		v15.416C22.582,25.785,22.283,26.083,21.916,26.084z"/>
	<path fill="#999999" d="M10.833,11.708c-0.414,0-0.75,0.336-0.75,0.75v11.167c0,0.414,0.336,0.75,0.75,0.75s0.75-0.336,0.75-0.75
		V12.458C11.583,12.044,11.247,11.708,10.833,11.708z"/>
	<path fill="#999999" d="M15,11.708c-0.414,0-0.75,0.336-0.75,0.75v11.167c0,0.414,0.336,0.75,0.75,0.75s0.75-0.336,0.75-0.75
		V12.458C15.75,12.044,15.414,11.708,15,11.708z"/>
	<path fill="#999999" d="M19.167,11.708c-0.414,0-0.75,0.336-0.75,0.75v11.167c0,0.414,0.336,0.75,0.75,0.75s0.75-0.336,0.75-0.75
		V12.458C19.917,12.044,19.581,11.708,19.167,11.708z"/>
</g>
</svg>
