<?xml version="1.0" encoding="utf-8"?>
<!-- Generator: Adobe Illustrator 15.1.0, SVG Export Plug-In . SVG Version: 6.00 Build 0)  -->
<!DOCTYPE svg PUBLIC "-//W3C//DTD SVG 1.1//EN" "http://www.w3.org/Graphics/SVG/1.1/DTD/svg11.dtd">
<svg version="1.1" id="圖層_1" xmlns="http://www.w3.org/2000/svg" xmlns:xlink="http://www.w3.org/1999/xlink" x="0px" y="0px"
	 width="60px" height="150px" viewBox="0 0 60 150" enable-background="new 0 0 60 150" xml:space="preserve">
<g>
	<path fill="#999999" d="M46.735,138.27c-4.081,2.609-10.281,4.168-18.513,4.229c-6.53,0.051-11.438-1.916-14.958-4.813v-4.908
		c3.554,3.152,8.629,5.336,15.505,5.283c7.896-0.061,13.901-1.764,17.966-4.455V138.27L46.735,138.27z"/>
	<path fill="#999999" d="M41.452,117.39c1.443,0,2.611,1.169,2.611,2.61s-1.168,2.61-2.611,2.61c-1.439,0-2.608-1.169-2.608-2.61
		C38.842,118.559,40.011,117.39,41.452,117.39L41.452,117.39z"/>
	<path fill="#999999" d="M13.992,116.765c1.683,4.479,10.063,4.78,10.063,8.414c0,1.267-0.24,2.399-1.409,3.13
		c-2.841,1.771-7.227-0.773-9.164-2.82v4.977c1.88,1.262,4.019,2.387,7.152,2.387h0.415c5.037,0,8.594-4.533,7.278-9.393
		c-1.402-5.191-10.391-6.53-10.391-9.373c0-0.035,0-0.069,0-0.104c0-1.687,1.352-2.694,3.007-2.694c0.518,0,1.036,0,1.555,0
		c2.273,0,3.715,1.055,5.079,1.969c0-1.416,0-2.834,0-4.25C22.118,105.561,10.693,107.979,13.992,116.765L13.992,116.765z"/>
	<path fill="#999999" d="M31.2,109.642v23.63h4.296l0.104-20.459c1.066-0.25,2.163-0.719,3.478-0.719h1.023
		c2.283,0,4.548,0.916,5.932,1.843v-4.295c-2.037-1.078-3.742-1.638-6.853-1.638h-0.31C37.08,108.004,31.987,108.957,31.2,109.642
		L31.2,109.642z"/>
</g>
<g>
	<path fill="none" stroke="#999999" stroke-width="1.5" stroke-linecap="round" stroke-linejoin="round" d="M45.115,36.34
		c0,1.977,1.604,3.578,3.583,3.578s3.581-1.602,3.581-3.578c0-1.98-1.603-3.582-3.581-3.582S45.115,34.359,45.115,36.34z"/>
	<path fill="none" stroke="#999999" stroke-width="1.5" stroke-linecap="round" stroke-linejoin="round" d="M52.724,17.242
		l4.776,9.549v9.549h-4.028h-1.192c0-1.98-1.603-3.582-3.581-3.582s-3.583,1.602-3.583,3.582h-4.324V24.404v-7.162H52.724z"/>
	<path fill="none" stroke="#999999" stroke-width="1.5" stroke-linecap="round" stroke-linejoin="round" d="M16.271,36.34
		c0,1.977,1.602,3.578,3.58,3.578c1.98,0,3.582-1.602,3.582-3.578c0-1.98-1.602-3.582-3.582-3.582
		C17.872,32.758,16.271,34.359,16.271,36.34z"/>
	<path fill="none" stroke="#999999" stroke-width="1.5" stroke-linecap="round" stroke-linejoin="round" d="M40.79,10.082V36.34
		H23.433c0-1.98-1.602-3.582-3.582-3.582c-1.979,0-3.58,1.602-3.58,3.582h-5.814V10.082H40.79z"/>
	<polygon fill="none" stroke="#999999" stroke-width="1.5" stroke-linecap="round" stroke-linejoin="round" points="50.195,20.806 
		52.942,26.822 44.448,26.822 44.448,20.806 	"/>
	
		<line fill="none" stroke="#999999" stroke-width="1.5" stroke-linecap="round" stroke-linejoin="round" x1="10.207" y1="14.135" x2="2.5" y2="14.135"/>
	
		<line fill="none" stroke="#999999" stroke-width="1.5" stroke-linecap="round" stroke-linejoin="round" x1="10.207" y1="17.367" x2="5.236" y2="17.367"/>
	
		<line fill="none" stroke="#999999" stroke-width="1.5" stroke-linecap="round" stroke-linejoin="round" x1="10.207" y1="20.6" x2="7.474" y2="20.6"/>
</g>
<g>
	<path fill="#979796" d="M11.75,75c0,10.08,8.172,18.249,18.25,18.25c10.08,0,18.25-8.17,18.25-18.25
		c0-10.078-8.17-18.25-18.25-18.25c-0.414,0-0.75,0.336-0.75,0.75s0.336,0.75,0.75,0.75c4.628,0,8.81,1.874,11.843,4.906
		C44.877,66.189,46.75,70.373,46.75,75c0,4.628-1.873,8.811-4.904,11.845C38.813,89.877,34.629,91.75,30,91.75
		c-4.627,0-8.811-1.873-11.844-4.905C15.125,83.811,13.25,79.628,13.25,75c0-0.414-0.336-0.75-0.75-0.75S11.75,74.586,11.75,75z"/>
	<path fill="#979796" d="M17.479,65.38v-2.031h11.145v1.645c-1.098,1.167-2.184,2.717-3.26,4.649
		c-1.076,1.934-1.908,3.921-2.494,5.965c-0.424,1.439-0.693,3.019-0.812,4.731h-2.173c0.023-1.354,0.291-2.989,0.8-4.908
		c0.509-1.918,1.237-3.767,2.188-5.548c0.951-1.78,1.963-3.282,3.035-4.503H17.479z"/>
	<path fill="#979796" d="M31.168,80.339v-0.784c-0.395,0.616-0.975,0.926-1.74,0.926c-0.496,0-0.952-0.138-1.368-0.41
		c-0.416-0.273-0.738-0.655-0.968-1.146c-0.229-0.49-0.342-1.054-0.342-1.689c0-0.621,0.104-1.186,0.311-1.69
		s0.518-0.895,0.932-1.163c0.414-0.27,0.877-0.404,1.389-0.404c0.375,0,0.709,0.079,1.002,0.237s0.531,0.364,0.716,0.618V71.75
		h1.049v8.59L31.168,80.339L31.168,80.339z M27.834,77.232c0,0.798,0.168,1.394,0.504,1.787c0.336,0.395,0.731,0.592,1.188,0.592
		c0.461,0,0.853-0.188,1.175-0.564c0.322-0.377,0.484-0.952,0.484-1.727c0-0.852-0.164-1.477-0.493-1.875
		c-0.328-0.397-0.731-0.598-1.213-0.598c-0.47,0-0.86,0.191-1.175,0.574C27.99,75.805,27.834,76.409,27.834,77.232z"/>
	<path fill="#979796" d="M31.168,80.339h0.074v-0.784l-0.053-0.072l-0.086,0.031c-0.384,0.598-0.931,0.889-1.677,0.892
		c-0.481,0-0.922-0.132-1.326-0.397c-0.403-0.266-0.717-0.636-0.939-1.113c-0.224-0.479-0.336-1.031-0.336-1.66
		c0-0.612,0.102-1.166,0.305-1.661c0.203-0.494,0.504-0.867,0.903-1.13c0.402-0.262,0.849-0.392,1.349-0.392
		c0.363,0,0.686,0.076,0.965,0.229c0.285,0.152,0.515,0.352,0.691,0.596l0.084,0.026l0.051-0.07v-3.007h0.898v8.439h-0.902V80.339
		h0.074H31.168v0.075h0.979l0.053-0.021l0.023-0.054v-8.59l-0.023-0.054l-0.053-0.021h-1.049l-0.053,0.021l-0.021,0.054v3.082h0.074
		l0.061-0.044c-0.189-0.265-0.437-0.479-0.74-0.642c-0.305-0.164-0.65-0.246-1.037-0.246c-0.523,0-1.004,0.14-1.43,0.417
		c-0.428,0.277-0.748,0.681-0.96,1.197c-0.211,0.517-0.315,1.09-0.315,1.719c0,0.646,0.115,1.222,0.35,1.723
		c0.232,0.502,0.564,0.896,0.994,1.177c0.427,0.281,0.898,0.423,1.408,0.423c0.785,0.002,1.398-0.322,1.804-0.961l-0.063-0.039
		h-0.076v0.784l0.023,0.054l0.053,0.021v-0.075H31.168z M27.834,77.232h-0.076c0,0.808,0.17,1.422,0.521,1.836
		c0.346,0.408,0.768,0.619,1.247,0.619c0.481,0,0.899-0.201,1.231-0.593c0.339-0.396,0.501-0.991,0.501-1.774
		c-0.002-0.859-0.166-1.502-0.509-1.923c-0.338-0.413-0.77-0.626-1.271-0.625c-0.489-0.001-0.908,0.204-1.232,0.603
		c-0.332,0.404-0.488,1.025-0.488,1.857H27.834h0.074c-0.001-0.814,0.156-1.4,0.454-1.763c0.306-0.368,0.669-0.546,1.117-0.547
		c0.459,0.001,0.837,0.187,1.155,0.57c0.312,0.377,0.476,0.983,0.474,1.827c0,0.764-0.16,1.32-0.464,1.677
		c-0.313,0.362-0.678,0.538-1.118,0.539c-0.435-0.001-0.808-0.185-1.133-0.565c-0.319-0.373-0.485-0.951-0.485-1.738H27.834z"/>
	<path fill="#979796" d="M37.266,79.57c-0.391,0.332-0.766,0.566-1.127,0.703c-0.361,0.138-0.75,0.205-1.164,0.205
		c-0.684,0-1.209-0.166-1.576-0.5s-0.551-0.762-0.551-1.28c0-0.306,0.07-0.583,0.209-0.835s0.32-0.454,0.545-0.606
		c0.225-0.151,0.479-0.268,0.758-0.346c0.207-0.056,0.521-0.106,0.939-0.158c0.852-0.103,1.479-0.224,1.881-0.362
		c0.004-0.146,0.006-0.236,0.006-0.275c0-0.43-0.1-0.732-0.299-0.908c-0.271-0.238-0.67-0.357-1.201-0.357
		c-0.496,0-0.863,0.087-1.1,0.261c-0.236,0.175-0.41,0.481-0.523,0.924l-1.031-0.142c0.094-0.44,0.248-0.798,0.463-1.068
		c0.215-0.271,0.525-0.48,0.932-0.627c0.408-0.147,0.877-0.221,1.412-0.221c0.531,0,0.963,0.063,1.295,0.188
		s0.576,0.282,0.732,0.472c0.156,0.19,0.266,0.429,0.328,0.718c0.035,0.181,0.053,0.505,0.053,0.974v1.406
		c0,0.979,0.021,1.601,0.066,1.859c0.045,0.26,0.135,0.51,0.268,0.747h-1.102C37.367,80.12,37.297,79.864,37.266,79.57z
		 M37.178,77.216c-0.383,0.156-0.957,0.289-1.723,0.398c-0.434,0.063-0.74,0.133-0.92,0.211c-0.18,0.077-0.318,0.192-0.416,0.343
		s-0.146,0.316-0.146,0.501c0,0.281,0.107,0.517,0.32,0.703s0.523,0.28,0.934,0.28c0.406,0,0.77-0.088,1.084-0.267
		c0.316-0.178,0.549-0.421,0.697-0.729c0.113-0.238,0.17-0.591,0.17-1.056V77.216z"/>
	<path fill="#979796" d="M37.266,79.57l-0.049-0.057c-0.385,0.327-0.754,0.557-1.105,0.689c-0.352,0.134-0.729,0.199-1.137,0.199
		c-0.672,0-1.176-0.163-1.525-0.48c-0.352-0.32-0.523-0.723-0.525-1.225c0-0.293,0.066-0.559,0.199-0.799
		c0.133-0.242,0.307-0.436,0.52-0.582c0.219-0.146,0.463-0.258,0.738-0.334c0.199-0.053,0.51-0.105,0.926-0.156
		c0.854-0.102,1.484-0.223,1.896-0.367l0.051-0.068c0.004-0.145,0.006-0.235,0.006-0.276c0-0.439-0.104-0.768-0.324-0.966
		c-0.289-0.255-0.709-0.376-1.252-0.376c-0.504,0.001-0.885,0.087-1.143,0.275s-0.438,0.515-0.553,0.966l0.072,0.019l0.01-0.074
		l-1.031-0.142l-0.01,0.074l0.072,0.017c0.092-0.435,0.242-0.778,0.449-1.038c0.205-0.26,0.502-0.46,0.896-0.604
		c0.396-0.143,0.859-0.215,1.389-0.215c0.523,0,0.947,0.062,1.268,0.183c0.324,0.122,0.557,0.273,0.701,0.449
		c0.146,0.179,0.252,0.406,0.313,0.687c0.033,0.167,0.053,0.489,0.053,0.957v1.405c0,0.982,0.021,1.602,0.066,1.873
		c0.047,0.27,0.141,0.525,0.275,0.771l0.064-0.036v-0.075h-1.102v0.075l0.068-0.032c-0.105-0.211-0.174-0.457-0.205-0.742
		l-0.047-0.063l-0.076,0.012L37.266,79.57l-0.074,0.009c0.031,0.3,0.105,0.565,0.219,0.793l0.066,0.042h1.104l0.063-0.037
		l0.002-0.074c-0.129-0.23-0.215-0.473-0.258-0.724c-0.045-0.247-0.066-0.869-0.066-1.849v-1.405c0-0.472-0.018-0.796-0.055-0.987
		c-0.064-0.3-0.18-0.551-0.344-0.751c-0.168-0.203-0.424-0.366-0.766-0.494c-0.344-0.13-0.783-0.192-1.32-0.192
		c-0.541,0-1.021,0.074-1.438,0.226c-0.416,0.148-0.74,0.366-0.965,0.649s-0.383,0.651-0.479,1.102l0.012,0.059l0.053,0.031
		l1.031,0.141l0.082-0.056c0.111-0.433,0.279-0.723,0.496-0.881c0.215-0.159,0.564-0.247,1.055-0.246c0.521,0,0.9,0.117,1.15,0.338
		c0.176,0.154,0.273,0.433,0.273,0.854c0,0.036-0.002,0.129-0.006,0.272l0.074,0.002l-0.023-0.07
		c-0.393,0.138-1.018,0.259-1.865,0.359c-0.42,0.051-0.734,0.104-0.947,0.16c-0.289,0.08-0.551,0.198-0.781,0.355
		c-0.234,0.158-0.426,0.371-0.568,0.633c-0.146,0.263-0.219,0.555-0.219,0.871c0,0.537,0.193,0.988,0.576,1.336
		c0.385,0.35,0.932,0.521,1.627,0.521c0.422,0,0.818-0.07,1.189-0.211s0.754-0.38,1.148-0.716L37.266,79.57l-0.074,0.009
		L37.266,79.57z M37.178,77.216l-0.027-0.069c-0.373,0.152-0.941,0.285-1.705,0.395c-0.438,0.063-0.746,0.133-0.939,0.217
		c-0.189,0.082-0.342,0.207-0.447,0.37c-0.105,0.162-0.16,0.345-0.16,0.542c0,0.3,0.117,0.561,0.346,0.76
		c0.23,0.203,0.563,0.301,0.984,0.301c0.416,0,0.791-0.092,1.121-0.276c0.328-0.185,0.572-0.44,0.729-0.763
		c0.119-0.256,0.176-0.616,0.178-1.088v-0.387l-0.033-0.063l-0.07-0.008L37.178,77.216h-0.074v0.388
		c0,0.459-0.057,0.802-0.162,1.021c-0.143,0.294-0.361,0.525-0.668,0.695c-0.303,0.172-0.65,0.258-1.047,0.258
		c-0.398,0-0.689-0.092-0.885-0.264c-0.197-0.176-0.293-0.385-0.293-0.646c0-0.17,0.043-0.321,0.133-0.46s0.215-0.242,0.385-0.314
		c0.166-0.072,0.471-0.145,0.9-0.205c0.768-0.11,1.346-0.244,1.74-0.403L37.178,77.216h-0.074H37.178z"/>
	<path fill="#979796" d="M39.232,82.734l-0.117-0.989c0.23,0.063,0.432,0.094,0.604,0.094c0.234,0,0.422-0.039,0.563-0.116
		c0.143-0.078,0.258-0.188,0.348-0.328c0.064-0.105,0.174-0.367,0.32-0.785c0.021-0.06,0.053-0.146,0.096-0.258l-2.361-6.234h1.137
		l1.295,3.604c0.168,0.457,0.318,0.938,0.451,1.441c0.121-0.484,0.266-0.957,0.434-1.418l1.33-3.627h1.055l-2.367,6.328
		c-0.254,0.684-0.451,1.154-0.592,1.412c-0.188,0.348-0.402,0.603-0.645,0.765s-0.531,0.243-0.867,0.243
		C39.709,82.864,39.482,82.82,39.232,82.734z"/>
	<path fill="#979796" d="M39.232,82.734l0.074-0.008l-0.117-0.99l-0.074,0.009l-0.02,0.071c0.234,0.063,0.441,0.098,0.623,0.098
		c0.242,0,0.441-0.04,0.598-0.127c0.152-0.084,0.277-0.203,0.373-0.354c0.074-0.119,0.182-0.381,0.33-0.801
		c0.02-0.059,0.051-0.144,0.094-0.257v-0.053l-2.322-6.134h0.975l1.277,3.555c0.168,0.455,0.316,0.934,0.449,1.436l0.072,0.057
		l0.072-0.057c0.121-0.482,0.264-0.953,0.432-1.412l1.313-3.577h0.895l-2.33,6.228c-0.252,0.682-0.449,1.152-0.586,1.402
		c-0.184,0.341-0.393,0.585-0.621,0.738c-0.229,0.152-0.502,0.229-0.824,0.229c-0.193,0-0.412-0.041-0.656-0.125L39.232,82.734
		l0.074-0.008L39.232,82.734l-0.023,0.072c0.256,0.088,0.488,0.133,0.703,0.133c0.348,0,0.652-0.086,0.908-0.256
		c0.256-0.172,0.479-0.438,0.67-0.793c0.145-0.265,0.342-0.735,0.596-1.421l2.367-6.328l-0.01-0.068l-0.061-0.032h-1.055
		l-0.07,0.049l-1.33,3.627c-0.17,0.465-0.314,0.939-0.438,1.426l0.072,0.02l0.072-0.02c-0.133-0.507-0.283-0.988-0.453-1.449
		l-1.295-3.603l-0.07-0.05H38.68l-0.063,0.032l-0.008,0.068l2.361,6.234l0.07-0.026l-0.07-0.025
		c-0.043,0.113-0.074,0.199-0.096,0.261c-0.146,0.414-0.256,0.677-0.314,0.769c-0.084,0.131-0.188,0.23-0.316,0.304
		c-0.125,0.069-0.301,0.106-0.527,0.106c-0.162,0-0.357-0.029-0.584-0.091l-0.068,0.017l-0.023,0.064l0.115,0.99l0.051,0.063
		L39.232,82.734z"/>
</g>
</svg>
